{
  "accessors": [
    {
      "bufferView": 1,
      "componentType": 5126,
      "count": 34517,
      "max": [
        87.758499145507812,
        -124,
        8
      ],
      "min": [
        82,
        -154,
        -79
      ],
      "type": "VEC3"
    },
    {
      "bufferView": 1,
      "byteOffset": 414204,
      "componentType": 5126,
      "count": 34517,
      "max": [
        1,
        1,
        1
      ],
      "min": [
        -1,
        -1,
        -1
      ],
      "type": "VEC3"
    },
    {
      "bufferView": 0,
      "componentType": 5125,
      "count": 126978,
      "max": [
        34516
      ],
      "min": [
        0
      ],
      "type": "SCALAR"
    },
    {
      "bufferView": 1,
      "byteOffset": 828408,
      "componentType": 5126,
      "count": 65532,
      "max": [
        92,
        -0,
        11
      ],
      "min": [
        -93.3489990234375,
        -180.27400207519531,
        -23.815000534057617
      ],
      "type": "VEC3"
    },
    {
      "bufferView": 1,
      "byteOffset": 1614792,
      "componentType": 5126,
      "count": 65532,
      "max": [
        1,
        1,
        1
      ],
      "min": [
        -1,
        -1,
        -1
      ],
      "type": "VEC3"
    },
    {
      "bufferView": 0,
      "byteOffset": 507912,
      "componentType": 5125,
      "count": 256062,
      "max": [
        65531
      ],
      "min": [
        0
      ],
      "type": "SCALAR"
    },
    {
      "bufferView": 1,
      "byteOffset": 2401176,
      "componentType": 5126,
      "count": 9460,
      "max": [
        91.98699951171875,
        -0,
        7.7420001029968262
      ],
      "min": [
        -88.837997436523438,
        -178.5,
        -23.257999420166016
      ],
      "type": "VEC3"
    },
    {
      "bufferView": 1,
      "byteOffset": 2514696,
      "componentType": 5126,
      "count": 9460,
      "max": [
        1,
        1,
        1
      ],
      "min": [
        -1,
        -1,
        -1
      ],
      "type": "VEC3"
    },
    {
      "bufferView": 0,
      "byteOffset": 1532160,
      "componentType": 5125,
      "count": 28080,
      "max": [
        9459
      ],
      "min": [
        0
      ],
      "type": "SCALAR"
    }
  ],
  "asset": {
    "extras": {
      "author": "Btcrick (https://sketchfab.com/Btcrick)",
      "license": "CC-BY-4.0 (http://creativecommons.org/licenses/by/4.0/)",
      "source": "https://sketchfab.com/3d-models/skelton-warrior-cf7845d60b32485db649f79c471ddd7c",
      "title": "Skelton Warrior"
    },
    "generator": "Sketchfab-9.49.0",
    "version": "2.0"
  },
  "bufferViews": [
    {
      "buffer": 0,
      "byteLength": 1644480,
      "byteOffset": 0,
      "name": "floatBufferViews",
      "target": 34963
    },
    {
      "buffer": 0,
      "byteLength": 2628216,
      "byteOffset": 1644480,
      "byteStride": 12,
      "name": "floatBufferViews",
      "target": 34962
    }
  ],
  "buffers": [
    {
      "byteLength": 4272696,
      "uri": "scene.bin"
    }
  ],
  "materials": [
    {
      "doubleSided": true,
      "emissiveFactor": [
        0,
        0,
        0
      ],
      "name": "color_11909273",
      "pbrMetallicRoughness": {
        "baseColorFactor": [
          0.70980399999999999,
          0.72156900000000002,
          0.59999999999999998,
          1
        ],
        "metallicFactor": 0,
        "roughnessFactor": 1
      }
    },
    {
      "doubleSided": true,
      "emissiveFactor": [
        0,
        0,
        0
      ],
      "name": "color_13165757",
      "pbrMetallicRoughness": {
        "baseColorFactor": [
          0.78431399999999996,
          0.89411799999999997,
          0.74117599999999995,
          1
        ],
        "metallicFactor": 0,
        "roughnessFactor": 1
      }
    }
  ],
  "meshes": [
    {
      "primitives": [
        {
          "attributes": {
            "NORMAL": 1,
            "POSITION": 0
          },
          "indices": 2,
          "material": 0,
          "mode": 4
        }
      ]
    },
    {
      "primitives": [
        {
          "attributes": {
            "NORMAL": 4,
            "POSITION": 3
          },
          "indices": 5,
          "material": 1,
          "mode": 4
        }
      ]
    },
    {
      "primitives": [
        {
          "attributes": {
            "NORMAL": 7,
            "POSITION": 6
          },
          "indices": 8,
          "material": 1,
          "mode": 4
        }
      ]
    }
  ],
  "nodes": [
    {
      "children": [
        1
      ],
      "name": "RootNode (gltf orientation matrix)",
      "rotation": [
        -0.70710678118654746,
        -0,
        -0,
        0.70710678118654757
      ]
    },
    {
      "children": [
        2
      ],
      "matrix": [
        1,
        0,
        0,
        0,
        0,
        2.2204460492503131e-16,
        -1,
        0,
        0,
        1,
        2.2204460492503131e-16,
        0,
        0,
        -56.137001037597656,
        -124.13700103759766,
        1
      ],
      "name": "RootNode (model correction matrix)"
    },
    {
      "children": [
        3,
        4,
        5
      ],
      "name": "tinker.obj.cleaner.materialmerger.gles"
    },
    {
      "mesh": 0,
      "name": ""
    },
    {
      "mesh": 1,
      "name": ""
    },
    {
      "mesh": 2,
      "name": ""
    }
  ],
  "scene": 0,
  "scenes": [
    {
      "name": "OSG_Scene",
      "nodes": [
        0
      ]
    }
  ]
}

